<svg xmlns="http://www.w3.org/2000/svg" viewBox="4 176.62899780273438 1016 670.741943359375" width="1024" height="1024" className="colorable-icon" overflow="visible"><g id="skeleton-paths" strokeWidth={45}><path id="path-0-0" d="M833.862 665.170L837.137 665.171L840.741 665.172L845.647 665.174L850.356 665.178L855.017 665.182L859.689 665.186L864.361 665.190L869.033 665.194L873.705 665.198L878.377 665.202L883.038 665.206L887.744 665.209L892.644 665.211L896.243 665.213L899.512 665.213" stroke="#000000" strokeWidth={45} fill="none" strokeLinecap="round" strokeLinejoin="round" /><path id="path-1-0" d="M913.654 687.666L914.066 689.478L914.441 691.125L915.069 693.882L915.693 696.627L916.491 700.133L917.303 703.712L918.109 707.256L918.747 710.064L919.363 712.771L919.949 715.351L920.629 718.345L921.315 721.364L921.929 724.067L922.545 726.771L923.138 729.381L923.810 732.333L924.496 735.357L925.089 737.969L925.716 740.726L926.310 743.336L926.994 746.341L927.666 749.302L928.259 751.908L928.869 754.596L929.387 756.874L929.997 759.555L930.589 762.163L931.262 765.120L931.946 768.133L932.539 770.745L933.166 773.502L933.760 776.113L934.445 779.124L935.128 782.135L935.722 784.746L936.349 787.503L936.942 790.115L937.627 793.124L938.311 796.137L938.905 798.748L939.531 801.505L940.125 804.116L940.809 807.125L941.494 810.138L942.087 812.750L942.714 815.507L943.331 818.217L944.115 821.690L944.903 825.192L945.684 828.687L946.310 831.617L946.754 833.722L947.025 835.231" stroke="#000000" strokeWidth={45} fill="none" strokeLinecap="round" strokeLinejoin="round" /><path id="path-2-0" d="M903.269 847.172L906.143 847.196L909.503 847.211L914.196 847.228L918.869 847.237L923.573 847.246L928.557 847.252L932.202 847.256L935.642 847.256" stroke="#000000" strokeWidth={45} fill="none" strokeLinecap="round" strokeLinejoin="round" /><path id="path-3-0" d="M827.359 689.348L828.473 692.118L829.777 695.361L831.628 699.965L833.491 704.598L835.402 709.349L837.295 714.052L839.175 718.724L841.007 723.278L842.855 727.873L844.714 732.496L846.625 737.248L848.522 741.960L850.390 746.605L852.245 751.216L854.103 755.837L856.014 760.589L857.908 765.304L859.771 769.952L861.615 774.567L863.458 779.193L865.352 783.951L867.230 788.671L869.081 793.324L870.919 797.942L872.762 802.570L874.655 807.328L876.521 812.017L878.396 816.729L880.246 821.365L882.171 826.167L884.284 831.164L885.872 834.867L887.442 838.211" stroke="#000000" strokeWidth={45} fill="none" strokeLinecap="round" strokeLinejoin="round" /><path id="path-4-0" d="M122.552 665.224L123.995 665.225L126.002 665.225L128.212 665.226L130.655 665.228L132.736 665.230L135.198 665.232L137.396 665.234L139.871 665.236L142.069 665.239L144.543 665.241L146.741 665.243L149.215 665.246L151.413 665.248L153.887 665.250L156.085 665.252L158.559 665.255L160.757 665.257L163.231 665.259L165.429 665.261L167.903 665.264L170.101 665.266L172.575 665.268L174.773 665.270L177.286 665.273L179.484 665.274L182.042 665.275L184.365 665.276L187.341 665.278L189.368 665.280L191.594 665.281" stroke="#000000" strokeWidth={45} fill="none" strokeLinecap="round" strokeLinejoin="round" /><path id="path-5-0" d="M138.208 838.490L138.956 836.694L139.724 834.853L140.912 831.996L142.107 829.096L143.408 825.910L144.657 822.809L145.741 820.095L146.788 817.445L147.889 814.650L149.290 811.093L150.872 807.077L152.457 803.052L153.861 799.487L154.968 796.678L155.952 794.180L156.818 791.981L157.803 789.480L158.908 786.675L160.313 783.108L161.896 779.089L163.480 775.067L164.882 771.507L165.985 768.704L167.030 766.051L168.132 763.256L169.534 759.697L171.148 755.598L172.885 751.188L174.501 747.086L175.904 743.523L177.006 740.722L178.051 738.070L179.154 735.271L180.557 731.710L182.172 727.610L183.909 723.199L185.524 719.099L186.926 715.538L188.027 712.741L189.072 710.088L190.176 707.287L191.580 703.724L193.196 699.621L194.933 695.211L196.190 692.020L197.212 689.425" stroke="#000000" strokeWidth={45} fill="none" strokeLinecap="round" strokeLinejoin="round" /><path id="path-6-0" d="M89.397 847.199L91.797 847.207L93.558 847.212L96.336 847.222L98.455 847.229L100.937 847.239L103.135 847.248L105.609 847.258L107.807 847.267L110.281 847.277L112.479 847.286L114.953 847.296L117.160 847.304L119.676 847.310L121.992 847.316L123.873 847.317L125.270 847.324" stroke="#000000" strokeWidth={45} fill="none" strokeLinecap="round" strokeLinejoin="round" /><path id="path-7-0" d="M77.377 834.187L77.814 832.242L78.453 829.439L79.271 825.782L80.112 821.988L80.870 818.511L81.472 815.746L82.048 813.092L82.606 810.526L83.260 807.516L83.946 804.360L84.521 801.716L85.098 799.062L85.656 796.496L86.310 793.485L86.996 790.329L87.571 787.686L88.148 785.032L88.705 782.466L89.360 779.453L90.046 776.299L90.620 773.657L91.197 771.003L91.755 768.436L92.410 765.422L93.096 762.268L93.670 759.627L94.251 756.955L94.807 754.396L95.464 751.374L96.133 748.293L96.705 745.663L97.277 743.029L97.845 740.417L98.507 737.374L99.183 734.262L99.755 731.633L100.327 728.997L100.895 726.387L101.556 723.344L102.233 720.232L102.805 717.602L103.377 714.966L103.945 712.356L104.606 709.313L105.283 706.202L105.854 703.572L106.427 700.934L106.995 698.326L107.656 695.283L108.332 692.171L108.904 689.542L109.468 686.948L109.801 685.421L110.162 683.764" stroke="#000000" strokeWidth={45} fill="none" strokeLinecap="round" strokeLinejoin="round" /><path id="path-8-0" d="M467.505 416.067L469.093 416.067L470.671 416.068L473.145 416.068L475.343 416.068L477.817 416.069L480.015 416.069L482.489 416.069L484.687 416.070L487.161 416.070L489.359 416.070L491.833 416.071L494.031 416.071L496.505 416.071L498.703 416.072L501.177 416.072L503.375 416.072L505.849 416.073L508.047 416.073L510.521 416.073L512.719 416.074L515.193 416.074L517.391 416.074L519.865 416.075L522.063 416.075L524.537 416.075L526.735 416.076L529.209 416.076L531.407 416.076L533.881 416.077L536.079 416.077L538.553 416.077L540.752 416.078L543.226 416.078L545.424 416.078L547.898 416.079L550.096 416.079L552.570 416.079L554.768 416.080L557.242 416.080L559.440 416.080L561.914 416.081L564.112 416.081L566.586 416.081L568.784 416.082L571.258 416.082L573.456 416.082L575.930 416.083L578.128 416.083L580.602 416.083L582.800 416.084L585.274 416.084L587.472 416.084L589.946 416.085L592.144 416.085L594.618 416.085L596.816 416.086L599.290 416.086L601.488 416.086L603.962 416.087L606.160 416.087L608.634 416.087L610.832 416.087L613.307 416.088L615.505 416.088L617.979 416.088L620.177 416.089L622.651 416.089L624.849 416.089L627.323 416.090L629.521 416.090L631.995 416.090L634.193 416.091L636.667 416.091L638.865 416.091L641.339 416.092L643.537 416.092L646.011 416.092L648.209 416.093L650.683 416.093L652.881 416.093L655.355 416.094L657.553 416.094L660.027 416.094L662.225 416.095L664.699 416.095L666.897 416.095L669.371 416.096L671.569 416.096L674.043 416.096L676.241 416.097L678.715 416.097L680.913 416.097L683.388 416.098L685.586 416.098L688.060 416.098L690.258 416.099L692.732 416.099L694.930 416.099L697.404 416.100L699.602 416.100L702.076 416.100L704.274 416.101L706.748 416.101L708.946 416.101L711.420 416.102L713.618 416.102L716.092 416.102L718.290 416.103L720.764 416.103L722.962 416.103L725.436 416.104L727.634 416.104L730.108 416.104L732.306 416.105L734.780 416.105L736.978 416.105L739.452 416.106L741.650 416.106L744.124 416.106L746.322 416.107L748.796 416.107L750.994 416.106L753.469 416.105L755.667 416.105L758.141 416.104L760.339 416.103L762.813 416.102L765.011 416.101L767.485 416.100L769.683 416.099L772.157 416.098L774.355 416.098L776.829 416.097L779.027 416.096L781.501 416.095L783.699 416.094L786.173 416.093L788.371 416.092L790.845 416.092L793.043 416.091L795.517 416.090L797.715 416.089L800.189 416.088L802.387 416.087L804.861 416.086L807.059 416.086L809.533 416.085L811.731 416.084L814.205 416.083L816.403 416.082L818.877 416.081L821.075 416.080L823.550 416.079L825.748 416.079L828.222 416.078L830.420 416.077L832.894 416.076L835.092 416.075L837.566 416.074L839.764 416.073L842.238 416.072L844.436 416.072L846.910 416.071L849.108 416.070L851.582 416.069L853.780 416.068L856.254 416.067L858.452 416.066L860.926 416.065L863.124 416.065L865.598 416.064L867.796 416.063L870.270 416.062L872.468 416.061L874.942 416.060L877.140 416.059L879.614 416.059L881.812 416.058L884.286 416.057L886.484 416.056L888.958 416.055L891.156 416.054L893.631 416.053L895.829 416.053L898.303 416.052L900.501 416.051L902.975 416.050L905.173 416.049L907.647 416.048L909.845 416.047L912.319 416.046L914.517 416.046L916.991 416.045L919.189 416.044L921.663 416.043L923.861 416.042L926.335 416.041L928.533 416.040L931.007 416.039L933.205 416.039L935.679 416.038L937.877 416.037L940.351 416.036L942.549 416.035L945.023 416.034L947.221 416.033L949.695 416.033L951.893 416.032L954.367 416.031L956.565 416.030L959.039 416.029L961.237 416.028L963.712 416.027L965.910 416.026L968.384 416.026L970.582 416.025L973.056 416.024L975.254 416.023L977.728 416.022L979.926 416.021L982.400 416.020L984.598 416.020L987.072 416.019L989.270 416.018L991.744 416.017L993.942 416.016L996.416 416.015L998.614 416.014L1000.376 416.014L1001.617 416.013" stroke="#000000" strokeWidth={45} fill="none" strokeLinecap="round" strokeLinejoin="round" /><path id="path-9-0" d="M922.004 665.209L925.524 665.208L929.289 665.208L934.358 665.207L939.114 665.207L943.786 665.207L948.458 665.206L953.130 665.206L957.802 665.205L962.452 665.196L967.114 665.134L971.796 664.919L976.567 664.406L981.427 663.443L986.276 661.977L991.123 659.951L995.901 657.303L1000.629 654.010L1005.171 649.980L1009.220 645.464L1012.677 640.540L1015.352 635.584L1017.335 630.661L1018.652 625.855L1019.430 621.100L1019.820 616.390L1019.964 611.702L1019.998 607.038L1020 602.365L1019.999 597.693L1019.998 593.021L1019.996 588.349L1019.995 583.677L1019.994 579.005L1019.993 574.333L1019.992 569.661L1019.990 564.989L1019.989 560.317L1019.988 555.645L1019.987 550.973L1019.986 546.301L1019.985 541.629L1019.983 536.957L1019.982 532.284L1019.981 527.612L1019.980 522.940L1019.979 518.268L1019.977 513.596L1019.976 508.924L1019.975 504.252L1019.974 499.580L1019.973 494.908L1019.971 490.236L1019.970 485.564L1019.969 480.892L1019.968 476.220L1019.967 471.548L1019.966 466.876L1019.964 462.203L1019.963 457.531L1019.962 452.859L1019.961 448.187L1019.960 443.518L1019.959 438.789L1019.958 433.834L1019.957 430.187L1019.957 426.858" stroke="#000000" strokeWidth={45} fill="none" strokeLinecap="round" strokeLinejoin="round" /><path id="path-10-0" d="M460.310 665.076L462.503 665.100L464.358 665.143L467.002 665.163L469.087 665.192L471.523 665.216L473.734 665.238L476.259 665.251L478.457 665.251L480.931 665.251L483.129 665.251L485.603 665.250L487.801 665.250L490.275 665.250L492.473 665.250L494.948 665.250L497.146 665.249L499.620 665.249L501.818 665.249L504.292 665.249L506.490 665.249L508.964 665.249L511.162 665.248L513.636 665.248L515.834 665.248L518.308 665.248L520.506 665.248L522.980 665.247L525.178 665.247L527.652 665.247L529.850 665.247L532.324 665.247L534.522 665.247L536.996 665.246L539.194 665.246L541.668 665.246L543.866 665.246L546.340 665.246L548.538 665.245L551.012 665.245L553.210 665.245L555.684 665.245L557.882 665.245L560.356 665.244L562.554 665.244L565.029 665.244L567.227 665.244L569.701 665.244L571.899 665.244L574.373 665.243L576.571 665.243L579.045 665.243L581.243 665.243L583.717 665.243L585.915 665.242L588.389 665.242L590.587 665.242L593.061 665.242L595.259 665.242L597.733 665.242L599.931 665.241L602.405 665.241L604.603 665.241L607.077 665.241L609.275 665.241L611.749 665.240L613.947 665.240L616.421 665.240L618.619 665.240L621.093 665.240L623.291 665.240L625.765 665.239L627.963 665.239L630.437 665.239L632.635 665.239L635.110 665.239L637.308 665.238L639.782 665.238L641.980 665.238L644.454 665.238L646.652 665.238L649.126 665.238L651.324 665.237L653.798 665.237L655.996 665.237L658.470 665.237L660.668 665.237L663.142 665.236L665.340 665.236L667.814 665.236L670.012 665.236L672.486 665.236L674.684 665.236L677.158 665.235L679.356 665.235L681.830 665.235L684.028 665.235L686.502 665.235L688.700 665.234L691.174 665.234L693.372 665.234L695.846 665.234L698.044 665.234L700.518 665.233L702.716 665.233L705.191 665.233L707.389 665.233L709.863 665.233L712.061 665.233L714.535 665.232L716.733 665.232L719.207 665.232L721.405 665.232L723.879 665.232L726.077 665.231L728.551 665.231L730.749 665.231L733.223 665.231L735.421 665.231L737.895 665.231L740.093 665.230L742.567 665.230L744.765 665.230L747.239 665.230L749.437 665.230L751.911 665.229L754.109 665.229L756.583 665.229L758.781 665.229L761.255 665.229L763.453 665.229L765.927 665.228L768.125 665.228L770.599 665.228L772.797 665.228L775.272 665.228L777.470 665.227L779.944 665.227L782.142 665.227L784.616 665.227L786.814 665.227L789.288 665.226L791.486 665.226L793.960 665.226L796.158 665.226L798.710 665.226L800.980 665.226L803.657 665.225L806.021 665.225L808.981 665.225L810.915 665.224L813.078 665.224" stroke="#000000" strokeWidth={45} fill="none" strokeLinecap="round" strokeLinejoin="round" /><path id="path-11-0" d="M449.289 644.352L449.291 641.525L449.292 638.185L449.294 633.513L449.296 628.840L449.298 624.168L449.300 619.496L449.302 614.824L449.304 610.152L449.306 605.480L449.308 600.808L449.310 596.136L449.312 591.464L449.315 586.792L449.317 582.120L449.319 577.448L449.321 572.776L449.323 568.104L449.325 563.432L449.327 558.759L449.329 554.087L449.331 549.415L449.333 544.743L449.335 540.071L449.337 535.399L449.339 530.727L449.341 526.055L449.343 521.383L449.345 516.711L449.347 512.039L449.349 507.367L449.351 502.695L449.353 498.023L449.355 493.351L449.358 488.678L449.360 484.006L449.362 479.334L449.364 474.662L449.366 469.990L449.368 465.318L449.370 460.646L449.372 455.974L449.374 451.302L449.376 446.630L449.378 441.975L449.380 437.284L449.382 432.422L449.383 428.856L449.384 425.629" stroke="#000000" strokeWidth={45} fill="none" strokeLinecap="round" strokeLinejoin="round" /><path id="path-12-0" d="M458.108 176.697L459.486 176.697L461.123 176.697L463.770 176.697L466.562 176.698L469.561 176.698L472.127 176.698L474.702 176.698L476.900 176.698L479.374 176.698L481.572 176.698L484.046 176.698L486.244 176.697L488.718 176.697L490.916 176.697L493.390 176.697L495.588 176.697L498.062 176.697L500.260 176.697L502.734 176.697L504.932 176.697L507.406 176.697L509.604 176.697L512.078 176.696L514.276 176.696L516.751 176.696L518.949 176.696L521.423 176.696L523.621 176.696L526.095 176.696L528.293 176.696L530.767 176.696L532.965 176.696L535.439 176.696L537.637 176.695L540.111 176.695L542.309 176.695L544.783 176.695L546.981 176.695L549.455 176.695L551.653 176.695L554.127 176.695L556.325 176.695L558.799 176.695L560.997 176.695L563.471 176.694L565.669 176.694L568.143 176.694L570.341 176.694L572.815 176.694L575.013 176.694L577.487 176.694L579.685 176.694L582.159 176.694L584.357 176.694L586.832 176.694L589.030 176.693L591.504 176.693L593.702 176.693L596.176 176.693L598.374 176.693L600.848 176.693L603.046 176.693L605.520 176.693L607.718 176.693L610.192 176.693L612.390 176.693L614.864 176.692L617.062 176.692L619.536 176.692L621.734 176.692L624.208 176.692L626.406 176.692L628.880 176.692L631.078 176.692L633.552 176.692L635.750 176.692L638.224 176.692L640.422 176.691L642.896 176.691L645.094 176.691L647.568 176.691L649.766 176.691L652.240 176.691L654.438 176.691L656.913 176.691L659.111 176.691L661.585 176.691L663.783 176.691L666.257 176.690L668.455 176.690L670.929 176.690L673.127 176.690L675.601 176.690L677.799 176.690L680.273 176.690L682.471 176.690L684.945 176.690L687.143 176.690L689.617 176.690L691.815 176.689L694.289 176.689L696.487 176.689L698.961 176.689L701.159 176.689L703.633 176.689L705.831 176.689L708.305 176.689L710.503 176.689L712.977 176.689L715.175 176.689L717.649 176.688L719.847 176.688L722.321 176.688L724.519 176.688L726.993 176.688L729.192 176.688L731.666 176.688L733.864 176.688L736.338 176.688L738.536 176.688L741.010 176.688L743.208 176.687L745.682 176.687L747.880 176.687L750.354 176.687L752.552 176.687L755.026 176.687L757.224 176.687L759.698 176.687L761.896 176.687L764.370 176.687L766.568 176.687L769.042 176.686L771.240 176.686L773.714 176.686L775.912 176.686L778.386 176.686L780.584 176.686L783.058 176.686L785.256 176.686L787.730 176.686L789.928 176.686L792.402 176.685L794.600 176.685L797.074 176.685L799.272 176.685L801.747 176.685L803.945 176.685L806.419 176.685L808.617 176.685L811.091 176.685L813.289 176.685L815.763 176.685L817.961 176.684L820.435 176.684L822.633 176.684L825.107 176.684L827.305 176.684L829.779 176.684L831.977 176.684L834.451 176.684L836.649 176.684L839.123 176.684L841.321 176.684L843.795 176.683L845.993 176.683L848.467 176.683L850.665 176.683L853.139 176.683L855.337 176.683L857.811 176.683L860.009 176.683L862.483 176.683L864.681 176.683L867.155 176.683L869.353 176.682L871.828 176.682L874.026 176.682L876.500 176.682L878.698 176.682L881.172 176.682L883.370 176.682L885.844 176.682L888.042 176.682L890.516 176.682L892.714 176.682L895.188 176.681L897.386 176.681L899.860 176.681L902.058 176.681L904.532 176.681L906.730 176.681L909.204 176.681L911.402 176.681L913.876 176.681L916.074 176.681L918.548 176.681L920.746 176.680L923.220 176.680L925.418 176.680L927.892 176.680L930.090 176.680L932.564 176.680L934.762 176.680L937.236 176.680L939.434 176.680L941.909 176.680L944.107 176.680L946.581 176.679L948.779 176.679L951.253 176.679L953.451 176.681L955.925 176.683L958.123 176.685L960.597 176.679L962.795 176.665L965.269 176.642L967.467 176.629L969.974 176.648L972.168 176.719L974.746 176.899L977.384 177.291L980.824 178.009L984.404 179.011L988.034 180.222L991.001 181.438L993.728 182.797L996.057 184.157L998.497 185.782L1000.669 187.411L1002.947 189.301L1004.972 191.157L1007.169 193.421L1009.371 196.125L1011.793 199.651L1013.988 203.424L1015.719 207.061L1016.822 209.970L1017.557 212.661L1018.081 214.965L1018.619 217.616L1019.073 220.230L1019.505 223.233L1019.792 226.190L1019.946 228.838L1019.994 231.395L1019.993 233.593L1019.992 236.067L1019.991 238.265L1019.990 240.739L1019.990 242.937L1019.989 245.411L1019.988 247.609L1019.987 250.083L1019.986 252.281L1019.985 254.755L1019.985 256.953L1019.984 259.427L1019.983 261.625L1019.982 264.099L1019.981 266.297L1019.980 268.771L1019.980 270.969L1019.979 273.443L1019.978 275.641L1019.977 278.115L1019.976 280.313L1019.975 282.787L1019.975 284.985L1019.974 287.459L1019.973 289.657L1019.972 292.131L1019.971 294.329L1019.970 296.803L1019.970 299.001L1019.969 301.476L1019.968 303.674L1019.967 306.148L1019.966 308.346L1019.965 310.820L1019.965 313.018L1019.964 315.492L1019.963 317.690L1019.962 320.164L1019.961 322.362L1019.960 324.836L1019.960 327.034L1019.959 329.508L1019.958 331.706L1019.957 334.180L1019.956 336.378L1019.955 338.852L1019.954 341.050L1019.954 343.524L1019.953 345.722L1019.952 348.196L1019.951 350.394L1019.950 352.868L1019.949 355.066L1019.949 357.540L1019.948 359.738L1019.947 362.212L1019.946 364.410L1019.945 366.884L1019.944 369.082L1019.944 371.557L1019.943 373.755L1019.942 376.229L1019.941 378.427L1019.940 380.901L1019.939 383.099L1019.939 385.573L1019.938 387.771L1019.937 390.307L1019.936 392.543L1019.936 395.075L1019.935 397.256L1019.935 399.993L1019.935 401.838L1019.934 403.981" stroke="#000000" strokeWidth={45} fill="none" strokeLinecap="round" strokeLinejoin="round" /><path id="path-13-0" d="M449.344 195.687L449.345 196.928L449.346 198.690L449.347 200.888L449.348 203.362L449.349 205.560L449.351 208.034L449.352 210.232L449.353 212.706L449.355 214.904L449.356 217.378L449.357 219.576L449.358 222.050L449.360 224.248L449.361 226.722L449.362 228.920L449.364 231.395L449.365 233.593L449.366 236.067L449.367 238.265L449.369 240.739L449.370 242.937L449.371 245.411L449.373 247.609L449.374 250.083L449.375 252.281L449.377 254.755L449.378 256.953L449.379 259.427L449.380 261.625L449.382 264.099L449.383 266.297L449.384 268.771L449.386 270.969L449.387 273.443L449.388 275.641L449.389 278.115L449.391 280.313L449.392 282.787L449.393 284.985L449.395 287.459L449.396 289.657L449.397 292.131L449.398 294.329L449.400 296.803L449.401 299.001L449.402 301.476L449.404 303.674L449.405 306.148L449.406 308.346L449.408 310.820L449.409 313.018L449.410 315.492L449.411 317.690L449.413 320.164L449.414 322.362L449.415 324.836L449.417 327.034L449.418 329.508L449.419 331.706L449.420 334.180L449.422 336.378L449.423 338.852L449.424 341.050L449.426 343.524L449.427 345.722L449.428 348.196L449.429 350.394L449.431 352.868L449.432 355.066L449.433 357.540L449.435 359.738L449.436 362.212L449.437 364.410L449.439 366.884L449.440 369.082L449.441 371.557L449.442 373.755L449.444 376.229L449.445 378.427L449.446 380.901L449.448 383.099L449.449 385.573L449.450 387.771L449.451 390.245L449.453 392.443L449.454 394.944L449.454 397.589L449.453 400.749L449.453 403.263L449.453 405.386" stroke="#000000" strokeWidth={45} fill="none" strokeLinecap="round" strokeLinejoin="round" /><path id="path-14-0" d="M101.438 665.269L99.240 665.267L97.277 665.265L94.155 665.261L91.753 665.257L89.113 665.253L86.941 665.248L84.446 665.242L82.248 665.235L79.738 665.227L77.537 665.219L74.930 665.209L72.335 665.201L69.300 665.193L66.310 665.187L63.646 665.183L61.086 665.175L58.888 665.161L56.414 665.114L54.216 665.035L51.682 664.883L49.453 664.694L46.966 664.384L44.867 664.037L42.358 663.469L39.607 662.679L35.953 661.345L31.768 659.429L27.252 656.878L23.158 654.103L19.612 651.166L16.743 648.238L14.180 645.113L11.941 641.883L10.017 638.530L8.312 634.933L6.896 631.296L5.753 627.836L5.002 624.996L4.543 622.324L4.285 619.764L4.121 616.904L4.046 614.040L4.007 611.461L4 608.915L4 606.717L4 604.243L4 602.045L4 599.571L4 597.373L4 594.899L4 592.701L4 590.227L4 588.029L4 585.555L4 583.357L4 580.883L4 578.685L4 576.211L4 574.013L4 571.539L4 569.341L4 566.867L4 564.669L4 562.195L4 559.997L4 557.522L4 555.324L4 552.850L4 550.652L4 548.178L4 545.980L4 543.506L4 541.308L4 538.834L4 536.636L4 534.162L4 531.964L4 529.490L4 527.292L4 524.818L4 522.620L4 520.146L4 517.948L4 515.474L4 513.276L4 510.802L4 508.604L4 506.130L4 503.932L4 501.458L4 499.260L4 496.786L4 494.588L4 492.114L4 489.916L4 487.441L4 485.243L4 482.769L4 480.571L4 478.097L4 475.899L4 473.425L4 471.227L4 468.753L4 466.555L4 464.081L4 461.883L4 459.409L4 457.211L4 454.737L4 452.539L4 450.065L4 447.867L4 445.393L4 443.195L4 440.721L4 438.523L4 436.049L4 433.851L4 431.377L4 429.179L4 426.705L4 424.507L4 422.033L4 419.835L4 417.360L4 415.162L4 412.688L4 410.490L4 408.016L4 405.818L4 403.344L4 401.146L4 398.672L4 396.474L4 394L4 391.802L4 389.328L4 387.130L4 384.656L4 382.458L4 379.984L4 377.786L4 375.312L4 373.114L4 370.640L4 368.442L4 365.968L4 363.770L4 361.296L4 359.098L4 356.624L4 354.426L4 351.952L4 349.754L4 347.279L4 345.081L4 342.607L4 340.409L4 337.935L4 335.737L4 333.263L4 331.065L4 328.591L4 326.393L4 323.919L4 321.721L4 319.247L4 317.049L4 314.575L4 312.377L4 309.903L4 307.705L4 305.231L4 303.033L4 300.559L4 298.361L4 295.887L4 293.689L4 291.215L4 289.017L4 286.543L4 284.345L4 281.871L4 279.673L4 277.198L4 275L4 272.526L4 270.328L4 267.854L4 265.656L4 263.182L4 260.984L4 258.510L4 256.312L4 253.838L4 251.640L4 249.166L4 246.968L4 244.494L4 242.296L4 239.822L4 237.624L4 235.150L4 232.952L4 230.478L4.008 228.280L4.043 225.814L4.115 223.677L4.286 221.227L4.651 218.643L5.370 215.226L6.581 211.179L8.270 206.781L10.191 202.668L12.190 199.180L13.923 196.537L15.856 194.108L17.972 191.850L20.614 189.335L23.500 186.970L26.453 184.880L29.443 183.052L32.333 181.538L34.947 180.303L37.484 179.338L39.728 178.637L42.170 178.029L44.662 177.566L47.835 177.157L51.676 176.860L56.108 176.689L60.766 176.629L65.438 176.629L70.110 176.634L74.782 176.635L79.454 176.636L84.126 176.637L88.798 176.638L93.470 176.638L98.142 176.639L102.814 176.640L107.486 176.641L112.158 176.642L116.831 176.643L121.503 176.644L126.175 176.645L130.847 176.646L135.519 176.647L140.191 176.647L144.863 176.648L149.535 176.649L154.207 176.650L158.879 176.651L163.551 176.652L168.223 176.653L172.895 176.654L177.567 176.655L182.239 176.656L186.912 176.656L191.584 176.657L196.256 176.658L200.928 176.659L205.600 176.660L210.272 176.661L214.944 176.662L219.616 176.663L224.288 176.664L228.960 176.665L233.632 176.665L238.304 176.666L242.976 176.667L247.648 176.668L252.320 176.669L256.992 176.670L261.665 176.671L266.337 176.672L271.009 176.673L275.681 176.674L280.353 176.674L285.025 176.675L289.697 176.676L294.369 176.677L299.041 176.678L303.713 176.679L308.385 176.680L313.057 176.681L317.729 176.682L322.401 176.682L327.073 176.683L331.746 176.684L336.418 176.685L341.090 176.686L345.762 176.687L350.434 176.688L355.106 176.689L359.778 176.690L364.450 176.691L369.122 176.691L373.794 176.692L378.466 176.693L383.138 176.694L387.810 176.695L392.482 176.696L397.154 176.697L401.827 176.698L406.499 176.699L411.171 176.700L415.843 176.700L420.493 176.701L425.172 176.702L430.005 176.703L433.546 176.704L436.741 176.704" stroke="#000000" strokeWidth={45} fill="none" strokeLinecap="round" strokeLinejoin="round" /><path id="path-15-0" d="M212.760 665.283L215.622 665.252L218.281 665.244L221.355 665.226L223.968 665.231L226.166 665.230L228.640 665.234L230.838 665.233L233.312 665.234L235.510 665.234L237.984 665.234L240.182 665.235L242.656 665.235L244.854 665.235L247.328 665.236L249.526 665.236L252 665.237L254.198 665.237L256.672 665.237L258.870 665.238L261.344 665.238L263.542 665.239L266.016 665.239L268.214 665.239L270.688 665.240L272.886 665.240L275.360 665.241L277.558 665.241L280.033 665.241L282.231 665.242L284.705 665.242L286.903 665.242L289.377 665.243L291.575 665.243L294.049 665.244L296.247 665.244L298.721 665.244L300.919 665.245L303.393 665.245L305.591 665.246L308.065 665.246L310.263 665.246L312.737 665.247L314.935 665.247L317.409 665.248L319.607 665.248L322.081 665.248L324.279 665.249L326.753 665.249L328.951 665.249L331.425 665.250L333.623 665.250L336.097 665.251L338.295 665.251L340.769 665.251L342.967 665.252L345.441 665.252L347.639 665.253L350.113 665.253L352.312 665.253L354.786 665.254L356.984 665.254L359.458 665.255L361.656 665.255L364.130 665.255L366.328 665.256L368.802 665.256L371 665.256L373.474 665.257L375.672 665.257L378.146 665.258L380.344 665.258L382.818 665.258L385.016 665.259L387.490 665.259L389.688 665.260L392.162 665.260L394.360 665.260L396.834 665.261L399.032 665.261L401.506 665.262L403.704 665.262L406.178 665.262L408.376 665.263L410.850 665.263L413.048 665.263L415.522 665.264L417.720 665.264L420.194 665.265L422.392 665.265L424.847 665.265L427.012 665.266L429.477 665.266L431.730 665.266L434.469 665.266L437.140 665.266L439.413 665.266L441.168 665.267" stroke="#000000" strokeWidth={45} fill="none" strokeLinecap="round" strokeLinejoin="round" /><path id="path-extension-1" d="M947.025 835.231L949.185 847.257" stroke="#000000" strokeWidth={45} fill="none" strokeLinecap="round" strokeLinejoin="round" /><path id="path-extension-2" d="M903.269 847.172L891.602 847.071" stroke="#000000" strokeWidth={45} fill="none" strokeLinecap="round" strokeLinejoin="round" /><path id="path-extension-3" d="M935.642 847.256L949.185 847.257" stroke="#000000" strokeWidth={45} fill="none" strokeLinecap="round" strokeLinejoin="round" /><path id="path-extension-4" d="M827.359 689.348L817.649 665.212" stroke="#000000" strokeWidth={45} fill="none" strokeLinecap="round" strokeLinejoin="round" /><path id="path-extension-5" d="M887.442 838.211L891.602 847.071" stroke="#000000" strokeWidth={45} fill="none" strokeLinecap="round" strokeLinejoin="round" /><path id="path-extension-6" d="M138.208 838.490L134.507 847.371" stroke="#000000" strokeWidth={45} fill="none" strokeLinecap="round" strokeLinejoin="round" /><path id="path-extension-7" d="M197.212 689.425L206.721 665.283" stroke="#000000" strokeWidth={45} fill="none" strokeLinecap="round" strokeLinejoin="round" /><path id="path-extension-8" d="M89.397 847.199L74.466 847.152" stroke="#000000" strokeWidth={45} fill="none" strokeLinecap="round" strokeLinejoin="round" /><path id="path-extension-9" d="M125.270 847.324L134.507 847.371" stroke="#000000" strokeWidth={45} fill="none" strokeLinecap="round" strokeLinejoin="round" /><path id="path-extension-10" d="M77.377 834.187L74.466 847.152" stroke="#000000" strokeWidth={45} fill="none" strokeLinecap="round" strokeLinejoin="round" /><path id="path-extension-11" d="M467.505 416.067L449.417 416.065" stroke="#000000" strokeWidth={45} fill="none" strokeLinecap="round" strokeLinejoin="round" /><path id="path-extension-12" d="M449.289 644.352L449.280 665.186" stroke="#000000" strokeWidth={45} fill="none" strokeLinecap="round" strokeLinejoin="round" /><path id="path-extension-13" d="M449.344 195.687L449.333 176.700" stroke="#000000" strokeWidth={45} fill="none" strokeLinecap="round" strokeLinejoin="round" /><path id="path-connection-1" d="M833.862 665.170L813.078 665.224" stroke="#000000" strokeWidth={45} fill="none" strokeLinecap="round" strokeLinejoin="round" /><path id="path-connection-2" d="M191.594 665.281L212.760 665.283" stroke="#000000" strokeWidth={45} fill="none" strokeLinecap="round" strokeLinejoin="round" /><path id="path-connection-3" d="M460.310 665.076L441.168 665.267" stroke="#000000" strokeWidth={45} fill="none" strokeLinecap="round" strokeLinejoin="round" /><path id="path-connection-4" d="M449.384 425.629L449.453 405.386" stroke="#000000" strokeWidth={45} fill="none" strokeLinecap="round" strokeLinejoin="round" /><path id="path-connection-5" d="M458.108 176.697L436.741 176.704" stroke="#000000" strokeWidth={45} fill="none" strokeLinecap="round" strokeLinejoin="round" /><path id="path-connection-6" d="M949.185 847.257L949.185 847.257" stroke="#000000" strokeWidth={45} fill="none" strokeLinecap="round" strokeLinejoin="round" /><path id="path-connection-7" d="M891.602 847.071L891.602 847.071" stroke="#000000" strokeWidth={45} fill="none" strokeLinecap="round" strokeLinejoin="round" /><path id="path-connection-8" d="M134.507 847.371L134.507 847.371" stroke="#000000" strokeWidth={45} fill="none" strokeLinecap="round" strokeLinejoin="round" /><path id="path-connection-9" d="M74.466 847.152L74.466 847.152" stroke="#000000" strokeWidth={45} fill="none" strokeLinecap="round" strokeLinejoin="round" /><path id="path-connection-10" d="M899.512 665.213L908.541 665.213" stroke="#000000" strokeWidth={45} fill="none" strokeLinecap="round" strokeLinejoin="round" /><path id="path-connection-11" d="M913.654 687.666L908.541 665.213" stroke="#000000" strokeWidth={45} fill="none" strokeLinecap="round" strokeLinejoin="round" /><path id="path-connection-12" d="M922.004 665.209L908.541 665.213" stroke="#000000" strokeWidth={45} fill="none" strokeLinecap="round" strokeLinejoin="round" /><path id="path-connection-13" d="M122.552 665.224L114.195 665.260" stroke="#000000" strokeWidth={45} fill="none" strokeLinecap="round" strokeLinejoin="round" /><path id="path-connection-14" d="M101.438 665.269L114.195 665.260" stroke="#000000" strokeWidth={45} fill="none" strokeLinecap="round" strokeLinejoin="round" /><path id="path-connection-15" d="M110.162 683.764L114.195 665.260" stroke="#000000" strokeWidth={45} fill="none" strokeLinecap="round" strokeLinejoin="round" /><path id="path-connection-16" d="M1001.617 416.013L1019.942 416.006" stroke="#000000" strokeWidth={45} fill="none" strokeLinecap="round" strokeLinejoin="round" /><path id="path-connection-17" d="M1019.957 426.858L1019.942 416.006" stroke="#000000" strokeWidth={45} fill="none" strokeLinecap="round" strokeLinejoin="round" /><path id="path-connection-18" d="M1019.934 403.981L1019.942 416.006" stroke="#000000" strokeWidth={45} fill="none" strokeLinecap="round" strokeLinejoin="round" /></g></svg>